#N canvas 827 239 527 327 12;
#X obj 637 535 noise~;
#X obj 637 555 *~ 0.4;
#X obj 766 935 dac~;
#X floatatom 866 795 17 0 0 0 empty - - 36;
#X obj 880 710 snapshot~;
#X obj 739 695 *~;
#X obj 846 475 bng 25 250 50 0 empty empty empty 17 7 0 10 #191919 #e1e1e1 #e1e1e1;
#X obj 896 661 metro 20;
#X obj 826 575 adsr~ 1000 1000 0 1000;
#X text 879 478 we should be able to replace this 'bang' button (the little square at the top w/ circle in it) with an actual midi listener and trigger the envelope;
#X connect 0 0 1 0 empty;
#X connect 1 0 5 0 empty;
#X connect 4 0 3 0 empty;
#X connect 5 0 2 0 empty;
#X connect 6 0 8 0 empty;
#X connect 7 0 4 0 empty;
#X connect 8 0 4 0 empty;
#X connect 8 0 5 1 empty;
