#N canvas 827 239 527 327 12;
#X obj 637 535 noise~;
#X obj 637 555 *~ 0.4;
#X obj 766 935 dac~;
#X floatatom 866 795 17 0 0 0 empty - - 36;
#X obj 880 710 snapshot~;
#X obj 739 695 *~;
#X obj 846 475 bng 25 250 50 0 empty empty empty 17 7 0 10 #191919 #e1e1e1 #e1e1e1;
#X obj 999 659 metro 20;
#X obj 826 575 adsr~ 1000 1000 0 1000;
#X text 879 478 we should be able to replace this 'bang' button (the little square at the top w/ circle in it) with an actual midi listener and trigger the envelope;
#X obj 1019 579 loadbang, f 11;
#X obj 1019 608 tgl 27 0 empty empty empty 17 7 0 10 #191919 #e1e1e1 #e1e1e1 0 1;
#X text 776 384 using [adsr~] object \;;
#X obj 1640 864 noise~;
#X obj 1639 908 *~ 0.4;
#X obj 1659 1028 *~;
#X obj 1767 445 bng 25 250 50 0 empty empty empty 17 7 0 10 #191919 #e1e1e1 #e1e1e1;
#X floatatom 1799 1128 17 0 0 0 empty - - 36;
#X msg 1693 699 1 1000 \;;
#X obj 1839 668 delay 1000;
#X obj 1857 715 bng 25 250 50 0 empty empty empty 17 7 0 10 #191919 #e1e1e1 #e1e1e1;
#X obj 1959 757 bng 25 250 50 0 empty empty empty 17 7 0 10 #191919 #e1e1e1 #e1e1e1;
#X obj 1959 708 delay 3000;
#X msg 1939 808 0 1000 \;;
#X obj 1839 1268 osc~;
#X obj 1813 1212 *~ 432;
#X obj 1679 1108 dac~;
#X obj 1839 1328 *~ 0.4;
#X obj 1739 888 line~;
#X obj 1854 1020 snapshot~;
#X obj 1979 868 loadbang;
#X obj 1979 937 tgl 25 0 empty empty empty 17 7 0 10 #191919 #e1e1e1 #e1e1e1 0 1;
#X obj 1979 991 metro 20;
#X obj 1902 1068 hsl 128 17 0 127 0 0 empty empty empty -2 -8 0 10 #191919 #e1e1e1 #e1e1e1 0 1;
#X msg 1779 788 0.5 1500 \;;
#X text 2067 584 *TODO: encapsulate generic ADSR filter with tweakable params \; using the [pd ] object;
#X text 1773 392 custom envelope setup \;;
#X connect 0 0 1 0 empty;
#X connect 1 0 5 0 empty;
#X connect 4 0 3 0 empty;
#X connect 5 0 2 0 empty;
#X connect 6 0 8 0 empty;
#X connect 7 0 4 0 empty;
#X connect 8 0 4 0 empty;
#X connect 8 0 5 1 empty;
#X connect 10 0 11 0 empty;
#X connect 11 0 7 0 empty;
#X connect 13 0 14 0 empty;
#X connect 14 0 15 0 empty;
#X connect 15 0 26 0 empty;
#X connect 16 0 18 0 empty;
#X connect 16 0 19 0 empty;
#X connect 17 0 25 0 empty;
#X connect 18 0 28 0 empty;
#X connect 19 0 20 0 empty;
#X connect 20 0 22 0 empty;
#X connect 20 0 34 0 empty;
#X connect 21 0 23 0 empty;
#X connect 22 0 21 0 empty;
#X connect 23 0 28 0 empty;
#X connect 24 0 27 0 empty;
#X connect 25 0 24 0 empty;
#X connect 28 0 15 1 empty;
#X connect 28 0 29 0 empty;
#X connect 29 0 17 0 empty;
#X connect 29 0 33 0 empty;
#X connect 30 0 31 0 empty;
#X connect 31 0 32 0 empty;
#X connect 32 0 29 0 empty;
#X connect 34 0 28 0 empty;
