#N canvas 827 239 527 327 12;
#X obj 139 639 dac~;
#X obj 139 59 notein;
#X floatatom 79 159 5 0 0 0 empty - - 12;
#X floatatom 299 219 5 0 0 0 empty - - 12;
#X obj 139 199 mtof;
#X text 334 219 Velocity;
#X text 139 158 MIDI note;
#X obj 314 260 > 0;
#X obj 314 300 tgl 25 0 empty empty empty 17 7 0 10 #e4e4e4 #4d4d4d #4d4d4d 0 1;
#X text 179 498 VCA;
#X text 334 279 Gate;
#X obj 519 259 clip~ 20 20000;
#X text 199 538 Soft clipper distortion?;
#X floatatom 79 199 5 0 0 0 empty - - 12;
#X obj 139 519 *~;
#X obj 139 579 *~ 1;
#X obj 139 259 osc~;
#X obj 399 399 bng 25 250 50 0 empty empty empty 17 7 0 10 #191919 #e1e1e1 #e1e1e1;
#X obj 499 419 bng 25 250 50 0 empty empty empty 17 7 0 10 #191919 #e1e1e1 #e1e1e1;
#X obj 619 419 bng 25 250 50 0 empty empty empty 17 7 0 10 #191919 #e1e1e1 #e1e1e1;
#X obj 499 519 line~;
#X obj 139 399 lop~ 6000;
#X obj 619 379 delay 250;
#X msg 619 459 0 500 \;;
#X msg 499 459 0.5 250 \;;
#X msg 319 459 1 50 \;;
#X obj 499 379 delay 50;
#X connect 1 0 2 0 empty;
#X connect 1 1 3 0 empty;
#X connect 2 0 4 0 empty;
#X connect 3 0 7 0 empty;
#X connect 4 0 13 0 empty;
#X connect 7 0 8 0 empty;
#X connect 8 0 25 0 empty;
#X connect 8 0 26 0 empty;
#X connect 13 0 16 0 empty;
#X connect 14 0 15 0 empty;
#X connect 15 0 0 0 empty;
#X connect 15 0 0 1 empty;
#X connect 16 0 21 0 empty;
#X connect 17 0 25 0 empty;
#X connect 17 0 26 0 empty;
#X connect 18 0 24 0 empty;
#X connect 18 0 22 0 empty;
#X connect 19 0 23 0 empty;
#X connect 20 0 14 1 empty;
#X connect 21 0 14 0 empty;
#X connect 22 0 19 0 empty;
#X connect 23 0 20 0 empty;
#X connect 24 0 20 0 empty;
#X connect 25 0 20 0 empty;
#X connect 26 0 18 0 empty;
