#N canvas 827 239 527 327 12;
#X obj 139 819 dac~;
#X obj 459 759 scope~ 130 130 2 3 128 -1 1 100 0 0 0 77 77 77 228 228 228 168 168 168 0 empty;
#X obj 139 59 notein;
#X obj 139 119 mono -high;
#X floatatom 79 159 5 0 0 0 empty - - 12;
#X floatatom 639 259 5 0 0 0 empty - - 12;
#X obj 139 199 mtof;
#X text 674 259 Velocity;
#X text 139 158 MIDI note;
#X obj 654 300 > 0;
#X obj 654 340 tgl 25 0 empty empty empty 17 7 0 10 #e4e4e4 #4d4d4d #4d4d4d 0 1;
#X text 179 678 VCA;
#X text 674 319 Gate;
#X floatatom 239 279 5 0 0 0 empty - - 12;
#X obj 242 239 hsl 128 17 0 127 0 0 empty empty empty -2 -8 0 10 #e4e4e4 #4d4d4d #4d4d4d 0 1;
#X obj 239 319 f2s~ 20;
#X obj 239 399 mtof~;
#X obj 239 439 clip~ 20 20000;
#X obj 382 239 hsl 128 17 0 127 0 0 empty empty empty -2 -8 0 10 #e4e4e4 #4d4d4d #4d4d4d 0 1;
#X floatatom 399 279 5 0 0 0 empty - - 12;
#X obj 399 319 f2s~ 20;
#X obj 399 359 *~;
#X obj 382 399 hsl 128 17 0 127 0 0 empty empty empty -2 -8 0 10 #e4e4e4 #4d4d4d #4d4d4d 0 1;
#X floatatom 399 439 5 0 0 0 empty - - 12;
#X obj 399 479 f2s~ 20;
#X text 199 718 Soft clipper distortion?;
#X floatatom 79 199 5 0 0 0 empty - - 12;
#X obj 139 239 bl.saw2~ 440;
#X obj 139 679 *~;
#X obj 659 379 f2s~;
#X obj 239 359 +~;
#X obj 139 519 lowpass~ 1000 0.7;
#X obj 659 419 adsr~ 1 250 1 500;
#X obj 259 199 r Encoder @hv_param;
#X obj 139 719 drive~;
#X obj 139 759 *~ 1;
#X text 377 144 TEST COMMENT \;;
#X connect 2 0 3 0 empty;
#X connect 2 1 3 1 empty;
#X connect 3 0 4 0 empty;
#X connect 3 1 5 0 empty;
#X connect 4 0 6 0 empty;
#X connect 5 0 9 0 empty;
#X connect 6 0 26 0 empty;
#X connect 9 0 10 0 empty;
#X connect 10 0 29 0 empty;
#X connect 13 0 15 0 empty;
#X connect 14 0 13 0 empty;
#X connect 15 0 30 0 empty;
#X connect 16 0 17 0 empty;
#X connect 17 0 31 1 empty;
#X connect 18 0 19 0 empty;
#X connect 19 0 20 0 empty;
#X connect 20 0 21 0 empty;
#X connect 21 0 30 1 empty;
#X connect 22 0 23 0 empty;
#X connect 23 0 24 0 empty;
#X connect 24 0 31 2 empty;
#X connect 26 0 27 0 empty;
#X connect 27 0 31 0 empty;
#X connect 28 0 34 0 empty;
#X connect 29 0 32 0 empty;
#X connect 30 0 16 0 empty;
#X connect 31 0 28 0 empty;
#X connect 32 0 28 1 empty;
#X connect 32 0 21 1 empty;
#X connect 33 0 13 0 empty;
#X connect 34 0 35 0 empty;
#X connect 35 0 0 0 empty;
#X connect 35 0 0 1 empty;
#X connect 35 0 1 0 empty;
