#N canvas 4227 1072 1440 679 10;
#X obj 785 449 dac~;
#X obj 863 354 osc~;
#X obj 588 372 osc~;
#X obj 658 389 *~;
#X msg 1016 325 1;
#X obj 922 390 *~;
#X obj 977 271 r Button2 @hv_param;
#X obj 708 274 r Button1 @hv_param;
#X obj 978 299 t b b;
#X msg 968 326 0 500;
#X obj 707 299 t b b;
#X msg 740 326 1;
#X msg 697 326 0 500;
#X obj 592 276 r Knob1 @hv_param;
#X obj 861 273 r Knob2 @hv_param;
#X obj 591 301 * 2000;
#X obj 861 298 * 2000;
#X obj 762 54 r EncSwitch @hv_param;
#X text 253 292 knob1 adjusts left pitch;
#X text 253 313 button1 triggers left envelope;
#X text 1135 273 knob2 adjusts right pitch;
#X text 1135 292 button2 triggers right envelope;
#X obj 509 290 vsl 15 128 0 1 0 0 empty empty empty 0 -9 0 10 #fcfcfc #000000 #000000 0 1;
#X text 485 30 pressing encoder toggles vibrato;
#X obj 859 134 osc~;
#X obj 859 86 loadbang;
#X obj 590 341 +~;
#X obj 861 331 +~;
#X obj 859 198 *~;
#X obj 708 234 bng 15 250 50 0 empty empty empty 17 7 0 10 #fcfcfc #000000 #000000;
#X obj 754 83 f;
#X obj 784 84 + 1;
#X obj 813 84 % 2;
#X obj 711 33 bng 15 250 50 0 empty empty empty 17 7 0 10 #fcfcfc #000000 #000000;
#X floatatom 755 115 5 0 0 0 - - - 0;
#X msg 858 109 10;
#X obj 982 232 bng 15 250 50 0 empty empty empty 17 7 0 10 #fcfcfc #000000 #000000;
#X obj 1088 241 vsl 15 128 0 1 0 0 empty empty empty 0 -9 0 10 #fcfcfc #000000 #000000 0 1;
#X obj 933 84 r Encoder @hv_param;
#X obj 930 134 f;
#X obj 958 133 +;
#X floatatom 958 162 5 0 0 0 - - - 0;
#X msg 1093 82 1;
#X msg 1142 82 -1;
#X obj 857 166 *~;
#X obj 932 109 * 25;
#X text 1196 85 rotating encoder sets vibrato depth;
#X msg 827 108 0;
#X msg 891 109 100;
#X obj 695 357 line~;
#X obj 972 356 line~;
#X obj 1066 471 r button1_press @hv_param;
#X obj 1238 472 r button2_press @hv_param;
#X obj 1219 539 s led2_blue @hv_param;
#X obj 1066 537 s led1_green @hv_param;
#X connect 1 0 5 0 empty;
#X connect 2 0 3 0 empty;
#X connect 3 0 0 0 empty;
#X connect 4 0 50 0 empty;
#X connect 5 0 0 1 empty;
#X connect 6 0 8 0 empty;
#X connect 7 0 10 0 empty;
#X connect 8 0 9 0 empty;
#X connect 8 1 4 0 empty;
#X connect 9 0 50 0 empty;
#X connect 10 0 12 0 empty;
#X connect 10 1 11 0 empty;
#X connect 11 0 49 0 empty;
#X connect 12 0 49 0 empty;
#X connect 13 0 15 0 empty;
#X connect 14 0 16 0 empty;
#X connect 15 0 26 0 empty;
#X connect 16 0 27 0 empty;
#X connect 17 0 30 0 empty;
#X connect 22 0 15 0 empty;
#X connect 24 0 44 0 empty;
#X connect 25 0 35 0 empty;
#X connect 25 0 47 0 empty;
#X connect 25 0 48 0 empty;
#X connect 26 0 2 0 empty;
#X connect 27 0 1 0 empty;
#X connect 28 0 26 1 empty;
#X connect 28 0 27 1 empty;
#X connect 29 0 10 0 empty;
#X connect 30 0 31 0 empty;
#X connect 30 0 28 1 empty;
#X connect 30 0 34 0 empty;
#X connect 31 0 32 0 empty;
#X connect 32 0 30 1 empty;
#X connect 33 0 30 0 empty;
#X connect 35 0 24 0 empty;
#X connect 36 0 8 0 empty;
#X connect 37 0 16 0 empty;
#X connect 38 0 45 0 empty;
#X connect 39 0 40 1 empty;
#X connect 40 0 41 0 empty;
#X connect 40 0 39 0 empty;
#X connect 40 0 44 1 empty;
#X connect 42 0 45 0 empty;
#X connect 43 0 45 0 empty;
#X connect 44 0 28 0 empty;
#X connect 45 0 40 0 empty;
#X connect 47 0 30 0 empty;
#X connect 48 0 39 0 empty;
#X connect 49 0 3 1 empty;
#X connect 50 0 5 1 empty;
#X connect 51 0 54 0 empty;
#X connect 52 0 53 0 empty;
